HIERARCHY
ROOT Hips
{
	OFFSET 0.000000 0.000000 0.000000
	CHANNELS 6 Xposition Yposition Zposition Xrotation Yrotation Zrotation
	JOINT LeftUpLeg_virtual
	{
		OFFSET 0.000000 0.000000 0.000000
		CHANNELS 3 Xrotation Yrotation Zrotation
		JOINT LeftUpLeg
		{
			OFFSET 10.205400 -3.823500 0.155100
			CHANNELS 3 Xrotation Yrotation Zrotation
			JOINT LeftLeg
			{
				OFFSET 0.708757 -12.982077 0.567790
				CHANNELS 3 Xrotation Yrotation Zrotation
				JOINT LeftFoot
				{
					OFFSET -0.708756 -10.717838 -2.184338
					CHANNELS 3 Xrotation Yrotation Zrotation
					JOINT LeftToeBase
					{
						OFFSET 0.108149 -7.191104 7.560241
						CHANNELS 3 Xrotation Yrotation Zrotation
						JOINT LeftToe_End
						{
							OFFSET 0.070230 0.081724 4.490308
							CHANNELS 3 Xrotation Yrotation Zrotation
							End Site
							{
								OFFSET 0 0 0
							}
						}
					}
				}
			}
		}
	}
	JOINT RightUpLeg_virtual
	{
		OFFSET 0.000000 0.000000 0.000000
		CHANNELS 3 Xrotation Yrotation Zrotation
		JOINT RightUpLeg
		{
			OFFSET -10.205400 -3.823500 0.005500
			CHANNELS 3 Xrotation Yrotation Zrotation
			JOINT RightLeg
			{
				OFFSET -0.708756 -12.982134 0.610632
				CHANNELS 3 Xrotation Yrotation Zrotation
				JOINT RightFoot
				{
					OFFSET 0.708754 -10.717769 -1.945823
					CHANNELS 3 Xrotation Yrotation Zrotation
					JOINT RightToeBase
					{
						OFFSET -0.108140 -7.191069 7.372968
						CHANNELS 3 Xrotation Yrotation Zrotation
						JOINT RightToe_End
						{
							OFFSET -0.070227 0.081735 4.479403
							CHANNELS 3 Xrotation Yrotation Zrotation
							End Site
							{
								OFFSET 0 0 0
							}
						}
					}
				}
			}
		}
	}
	JOINT Spine_virtual
	{
		OFFSET 0.000000 0.000000 0.000000
		CHANNELS 3 Xrotation Yrotation Zrotation
		JOINT Spine
		{
			OFFSET 0.000000 6.876099 0.125700
			CHANNELS 3 Xrotation Yrotation Zrotation
			JOINT Spine1
			{
				OFFSET 0.000000 5.730043 0.104720
				CHANNELS 3 Xrotation Yrotation Zrotation
				JOINT Spine1_split
				{
					OFFSET 0.000000 5.730043 0.104720
					CHANNELS 3 Xrotation Yrotation Zrotation
					JOINT Spine2
					{
						OFFSET 0.000000 5.730043 0.104720
						CHANNELS 3 Xrotation Yrotation Zrotation
						JOINT Neck_virtual
						{
							OFFSET 0.000000 0.000000 0.000000
							CHANNELS 3 Xrotation Yrotation Zrotation
							JOINT Neck
							{
								OFFSET 0.000000 10.314075 0.188496
								CHANNELS 3 Xrotation Yrotation Zrotation
								JOINT Head
								{
									OFFSET 0.000000 7.643700 -2.377400
									CHANNELS 3 Xrotation Yrotation Zrotation
									JOINT HeadTop_End
									{
										OFFSET 0.000000 43.788605 -13.619600
										CHANNELS 3 Xrotation Yrotation Zrotation
										End Site
										{
											OFFSET 0 0 0
										}
									}
								}
							}
						}
						JOINT LeftShoulder_virtual
						{
							OFFSET 0.000000 0.000000 0.000000
							CHANNELS 3 Xrotation Yrotation Zrotation
							JOINT LeftShoulder
							{
								OFFSET 2.196100 4.412489 0.087492
								CHANNELS 3 Xrotation Yrotation Zrotation
								JOINT LeftShoulder_split
								{
									OFFSET 2.196100 4.412489 0.087492
									CHANNELS 3 Xrotation Yrotation Zrotation
									JOINT LeftArm
									{
										OFFSET 8.771219 -2.981674 -0.026999
										CHANNELS 3 Xrotation Yrotation Zrotation
										JOINT LeftForeArm
										{
											OFFSET 8.512804 0.000000 -0.000000
											CHANNELS 3 Xrotation Yrotation Zrotation
											JOINT LeftHand
											{
												OFFSET 18.484802 0.000000 -0.000000
												CHANNELS 3 Xrotation Yrotation Zrotation
												End Site
												{
													OFFSET 0 0 0
												}
											}
										}
									}
								}
							}
						}
						JOINT RightShoulder_virtual
						{
							OFFSET 0.000000 0.000000 0.000000
							CHANNELS 3 Xrotation Yrotation Zrotation
							JOINT RightShoulder
							{
								OFFSET -2.196100 4.412496 0.070690
								CHANNELS 3 Xrotation Yrotation Zrotation
								JOINT RightShoulder_split
								{
									OFFSET -2.196100 4.412496 0.070690
									CHANNELS 3 Xrotation Yrotation Zrotation
									JOINT RightArm
									{
										OFFSET -8.771282 -2.981682 -0.094208
										CHANNELS 3 Xrotation Yrotation Zrotation
										JOINT RightForeArm
										{
											OFFSET -8.494598 0.000000 0.000000
											CHANNELS 3 Xrotation Yrotation Zrotation
											JOINT RightHand
											{
												OFFSET -18.483803 0.000000 0.000001
												CHANNELS 3 Xrotation Yrotation Zrotation
												End Site
												{
													OFFSET 0 0 0
												}
											}
										}
									}
								}
							}
						}
					}
				}
			}
		}
	}
}
MOTION
Frames: 5
Frame Time: 0.03333333
0.048787 27.175804 0.421873 0.000000 0.000000 0.000000 13.597238 -52.869807 12.259553 -71.826201 21.640647 42.947304 45.820993 -18.357663 4.616808 8.554531 -5.360350 -14.950371 -6.271101 -6.274274 1.713607 0.000000 0.000000 0.000000 13.903319 -53.387433 12.589369 -20.390780 -1.893305 -29.864343 41.048259 13.567853 -8.887361 -36.099008 -10.487627 30.787552 2.536416 6.721928 2.618918 0.000000 0.000000 0.000000 13.944129 -46.673353 11.174297 6.349309 3.782233 -4.658470 6.780137 7.265606 -4.825099 0.170236 -2.236082 0.487541 0.000000 0.000000 0.000000 -3.076086 7.232574 -3.415984 -0.081481 14.018178 -1.382943 -2.283586 18.166143 -2.173392 0.000000 0.000000 0.000000 -4.235355 6.538578 -2.859990 -0.209503 -14.828650 0.755806 -1.369097 -2.308050 0.200871 -20.613052 1.020563 -48.625578 -19.961368 -13.525180 -9.472559 0.000000 0.000000 0.000000 -5.161838 6.528224 -2.553173 -0.885953 19.394042 -0.766985 -4.489285 -4.951227 7.050479 -1.057319 -21.850900 54.600245 -23.359638 43.800716 24.295394 0.000000 0.000000 0.000000 
0.250084 27.293587 0.452169 0.000000 0.000000 0.000000 13.360514 -52.939905 12.278512 -71.046610 20.868344 42.182535 45.253357 -18.867038 3.970199 8.078761 -4.550167 -14.980837 -4.633487 -6.112384 1.118920 0.000000 0.000000 0.000000 13.765539 -54.021148 12.859617 -21.038402 -2.183208 -29.786257 40.932651 13.136733 -8.693769 -35.718495 -10.296482 29.493409 3.353638 6.756577 2.994018 0.000000 0.000000 0.000000 13.618442 -46.889057 10.925373 6.328207 3.785828 -4.819363 6.735581 7.234626 -4.948671 -0.013028 -2.263328 0.546364 0.000000 0.000000 0.000000 -3.255340 7.228755 -3.465424 -0.074582 14.575058 -2.116873 -1.998415 18.669603 -2.691315 0.000000 0.000000 0.000000 -4.388991 6.548589 -2.920113 -0.349665 -14.456350 0.355744 -1.848191 -2.203305 0.315488 -19.901909 1.577866 -47.850045 -20.016638 -13.767829 -9.774475 0.000000 0.000000 0.000000 -5.099952 6.502389 -2.696871 -0.770030 19.302226 -0.376117 -6.133707 -4.209380 6.696324 -1.547238 -23.276110 54.203790 -23.398512 43.878901 24.710767 0.000000 0.000000 0.000000 
0.528593 27.517176 0.417044 0.000000 0.000000 0.000000 13.112637 -54.319156 12.611283 -69.466596 19.764530 42.021499 44.455283 -19.404164 3.219802 8.296225 -3.387200 -17.204968 -1.507659 -5.816154 0.186660 0.000000 0.000000 0.000000 13.530618 -55.933771 13.367187 -23.269044 -2.087054 -29.077061 40.593556 13.323714 -8.432829 -34.053517 -9.514706 28.269648 3.679697 6.935025 2.595873 0.000000 0.000000 0.000000 13.362983 -48.739984 11.099193 6.875026 3.585876 -4.909548 6.880316 7.164460 -5.172382 -0.141678 -2.397864 0.829720 0.000000 0.000000 0.000000 -3.241606 7.148783 -3.637544 -0.292187 15.299200 -3.162180 -1.734876 19.268133 -3.990130 0.000000 0.000000 0.000000 -4.392392 6.570555 -3.126380 -0.581712 -13.512637 -0.984541 -2.416739 -2.495280 0.458972 -19.438901 2.640627 -46.862717 -18.755124 -14.358010 -9.479871 0.000000 0.000000 0.000000 -4.865003 6.495374 -2.974732 -0.656417 18.705952 0.248894 -7.261669 -4.120622 6.075344 -2.813535 -23.111178 52.398138 -24.201573 45.158031 26.236990 0.000000 0.000000 0.000000 
0.789678 27.741682 0.315287 0.000000 0.000000 0.000000 13.041835 -57.182836 13.337747 -66.953264 19.068213 42.646554 43.153760 -19.488599 2.353490 8.676003 -1.654301 -20.419798 0.283268 -5.548171 -0.180122 0.000000 0.000000 0.000000 13.545657 -59.238401 14.282685 -27.092488 -1.656321 -27.583767 40.688318 14.097977 -8.181358 -31.096058 -8.133943 27.075814 3.338633 7.139636 1.733808 0.000000 0.000000 0.000000 13.228960 -52.262497 11.757780 7.792133 3.152559 -4.897813 7.157685 6.980246 -5.457731 -0.221567 -2.526240 1.452962 0.000000 0.000000 0.000000 -3.005722 6.971149 -3.909614 -0.637643 16.256595 -4.479081 -1.602642 19.893812 -5.844877 0.000000 0.000000 0.000000 -4.259615 6.533370 -3.465236 -0.809086 -12.064704 -2.986797 -2.774545 -3.033605 0.468687 -19.236668 3.902899 -45.925400 -16.252705 -14.575400 -8.547133 0.000000 0.000000 0.000000 -4.582658 6.399805 -3.354720 -0.532866 17.525929 0.935589 -7.590799 -4.263112 5.438453 -4.265679 -20.871791 49.366497 -25.632947 47.652208 28.752194 0.000000 0.000000 0.000000 
0.998888 27.887661 0.110773 0.000000 0.000000 0.000000 13.793523 -61.525586 14.833986 -63.424208 19.669801 44.101073 41.525313 -18.174777 1.366742 7.296451 1.474399 -22.246855 -0.100752 -5.356195 0.169563 0.000000 0.000000 0.000000 14.169730 -63.708350 15.760093 -32.169624 -1.135381 -25.166363 41.100469 15.395497 -8.020807 -27.165088 -6.260087 25.718604 2.533229 7.267076 0.759866 0.000000 0.000000 0.000000 13.675567 -57.148992 13.151071 8.919401 2.472640 -4.713505 7.540192 6.606775 -5.771818 -0.370566 -2.785284 2.003919 0.000000 0.000000 0.000000 -2.631075 6.648184 -4.219225 -0.990825 17.425138 -5.901436 -1.672265 20.368463 -7.971965 0.000000 0.000000 0.000000 -4.019009 6.334830 -3.897753 -0.946044 -10.252270 -5.122753 -2.930517 -3.526562 0.191566 -19.012706 5.138280 -45.158844 -12.963980 -14.199852 -7.227729 0.000000 0.000000 0.000000 -4.308254 6.112720 -3.791478 -0.391037 15.781296 1.485722 -7.004441 -4.368357 4.763181 -5.281866 -16.662118 45.581059 -27.530162 51.079221 32.043491 0.000000 0.000000 0.000000 
